<svg width="308" height="208" viewBox="0 0 308 208" fill="none" xmlns="http://www.w3.org/2000/svg">
<path d="M70.9254 104H65.218L78.0423 68.3636H84.2543L97.0785 104H91.3711L81.2962 74.8366H81.0178L70.9254 104ZM71.8825 90.0447H90.3967V94.5689H71.8825V90.0447ZM130.988 68.3636V104H126.046L107.932 77.8643H107.601V104H102.225V68.3636H107.201L125.333 94.5341H125.663V68.3636H130.988ZM169.787 86.1818C169.787 89.9867 169.091 93.258 167.699 95.9957C166.307 98.7218 164.398 100.821 161.974 102.295C159.561 103.756 156.818 104.487 153.743 104.487C150.658 104.487 147.903 103.756 145.478 102.295C143.065 100.821 141.163 98.716 139.771 95.9783C138.379 93.2406 137.683 89.9751 137.683 86.1818C137.683 82.3769 138.379 79.1114 139.771 76.3853C141.163 73.6476 143.065 71.5479 145.478 70.0863C147.903 68.613 150.658 67.8764 153.743 67.8764C156.818 67.8764 159.561 68.613 161.974 70.0863C164.398 71.5479 166.307 73.6476 167.699 76.3853C169.091 79.1114 169.787 82.3769 169.787 86.1818ZM164.462 86.1818C164.462 83.2817 163.992 80.8398 163.053 78.8562C162.125 76.8609 160.849 75.3529 159.225 74.332C157.612 73.2996 155.785 72.7834 153.743 72.7834C151.69 72.7834 149.857 73.2996 148.245 74.332C146.632 75.3529 145.356 76.8609 144.417 78.8562C143.489 80.8398 143.025 83.2817 143.025 86.1818C143.025 89.0819 143.489 91.5296 144.417 93.5249C145.356 95.5085 146.632 97.0166 148.245 98.049C149.857 99.0698 151.69 99.5803 153.743 99.5803C155.785 99.5803 157.612 99.0698 159.225 98.049C160.849 97.0166 162.125 95.5085 163.053 93.5249C163.992 91.5296 164.462 89.0819 164.462 86.1818ZM205.253 68.3636V104H200.312L182.198 77.8643H181.867V104H176.49V68.3636H181.467L199.598 94.5341H199.929V68.3636H205.253ZM210.347 68.3636H216.455L225.764 84.5636H226.147L235.457 68.3636H241.564L228.635 90.0099V104H223.276V90.0099L210.347 68.3636Z" fill="#306791"/>
<path d="M269.5 130C269.5 134.597 266.796 139.006 261.982 142.257C257.169 145.507 250.641 147.333 243.833 147.333H89.8333L38.5 182V43.3333C38.5 38.7362 41.2042 34.3274 46.0176 31.0768C50.831 27.8262 57.3594 26 64.1667 26H243.833C250.641 26 257.169 27.8262 261.982 31.0768C266.796 34.3274 269.5 38.7362 269.5 43.3333V130Z" stroke="#306791" stroke-width="13" stroke-linecap="round" stroke-linejoin="round"/>
</svg>
