<svg width="84" height="57" viewBox="0 0 84 57" fill="none" xmlns="http://www.w3.org/2000/svg">
<path d="M20.1467 29H18.3185L21.647 19.5455H23.7614L27.0945 29H25.2663L22.7411 21.4844H22.6673L20.1467 29ZM20.2067 25.293H25.1925V26.6687H20.2067V25.293ZM36.1093 19.5455V29H34.5858L30.1309 22.56H30.0525V29H28.3398V19.5455H29.8724L34.3227 25.9901H34.4058V19.5455H36.1093ZM46.4237 24.2727C46.4237 25.2914 46.2328 26.1639 45.8512 26.8903C45.4727 27.6135 44.9556 28.1675 44.3001 28.5522C43.6476 28.9369 42.9074 29.1293 42.0795 29.1293C41.2517 29.1293 40.5099 28.9369 39.8544 28.5522C39.2019 28.1644 38.6849 27.6089 38.3033 26.8857C37.9247 26.1593 37.7354 25.2884 37.7354 24.2727C37.7354 23.254 37.9247 22.383 38.3033 21.6598C38.6849 20.9335 39.2019 20.378 39.8544 19.9933C40.5099 19.6085 41.2517 19.4162 42.0795 19.4162C42.9074 19.4162 43.6476 19.6085 44.3001 19.9933C44.9556 20.378 45.4727 20.9335 45.8512 21.6598C46.2328 22.383 46.4237 23.254 46.4237 24.2727ZM44.7017 24.2727C44.7017 23.5556 44.5894 22.9509 44.3647 22.4585C44.1431 21.9629 43.8353 21.589 43.4414 21.3366C43.0475 21.0812 42.5935 20.9535 42.0795 20.9535C41.5656 20.9535 41.1116 21.0812 40.7177 21.3366C40.3237 21.589 40.0144 21.9629 39.7898 22.4585C39.5682 22.9509 39.4574 23.5556 39.4574 24.2727C39.4574 24.9898 39.5682 25.5961 39.7898 26.0916C40.0144 26.584 40.3237 26.958 40.7177 27.2134C41.1116 27.4658 41.5656 27.592 42.0795 27.592C42.5935 27.592 43.0475 27.4658 43.4414 27.2134C43.8353 26.958 44.1431 26.584 44.3647 26.0916C44.5894 25.5961 44.7017 24.9898 44.7017 24.2727ZM55.8124 19.5455V29H54.289L49.8341 22.56H49.7556V29H48.0429V19.5455H49.5756L54.0258 25.9901H54.1089V19.5455H55.8124ZM57.0323 19.5455H58.9666L61.2795 23.728H61.3718L63.6847 19.5455H65.619L62.1797 25.473V29H60.4716V25.473L57.0323 19.5455Z" fill="#EFF2DD"/>
<path d="M73.5 35.625C73.5 36.8848 72.7625 38.093 71.4497 38.9838C70.137 39.8746 68.3565 40.375 66.5 40.375H24.5L10.5 49.875V11.875C10.5 10.6152 11.2375 9.40704 12.5503 8.51624C13.863 7.62544 15.6435 7.125 17.5 7.125H66.5C68.3565 7.125 70.137 7.62544 71.4497 8.51624C72.7625 9.40704 73.5 10.6152 73.5 11.875V35.625Z" stroke="#EFF2DD" stroke-width="3" stroke-linecap="round" stroke-linejoin="round"/>
</svg>
