<svg width="23" height="26" viewBox="0 0 23 26" fill="none" xmlns="http://www.w3.org/2000/svg">
<path d="M15.7516 22.0032V23.9563C15.7516 24.6035 15.2269 25.1282 14.5797 25.1282H1.29846C0.651245 25.1282 0.126587 24.6035 0.126587 23.9563V5.98758C0.126587 5.34036 0.651245 4.8157 1.29846 4.8157H4.81409V19.2688C4.81409 20.7766 6.0407 22.0032 7.54846 22.0032H15.7516ZM15.7516 5.20633V0.128204H7.54846C6.90125 0.128204 6.37659 0.652863 6.37659 1.30008V19.2688C6.37659 19.916 6.90125 20.4407 7.54846 20.4407H20.8297C21.4769 20.4407 22.0016 19.916 22.0016 19.2688V6.3782H16.9235C16.2789 6.3782 15.7516 5.85086 15.7516 5.20633ZM21.6584 3.69124L18.4385 0.471417C18.2188 0.251663 17.9207 0.128206 17.6099 0.128204L17.3141 0.128204V4.8157H22.0016V4.51985C22.0016 4.20907 21.8781 3.91101 21.6584 3.69124Z" fill="#EFF2DD"/>
</svg>
